<svg width="56" height="56" viewBox="0 0 56 56" fill="none" xmlns="http://www.w3.org/2000/svg">
<path d="M48.3196 11.9583C48.3196 15.7552 39.0855 18.8333 27.6946 18.8333C16.3037 18.8333 7.06958 15.7552 7.06958 11.9583M48.3196 11.9583C48.3196 8.16129 39.0855 5.08325 27.6946 5.08325C16.3037 5.08325 7.06958 8.16129 7.06958 11.9583M48.3196 11.9583V44.0416C48.3196 47.8458 39.1529 50.9166 27.6946 50.9166C16.2362 50.9166 7.06958 47.8458 7.06958 44.0416V11.9583M48.3196 27.9999C48.3196 31.8041 39.1529 34.8749 27.6946 34.8749C16.2362 34.8749 7.06958 31.8041 7.06958 27.9999" stroke="#1E1E1E" stroke-width="4.58333" stroke-linecap="round" stroke-linejoin="round"/>
</svg>
