<svg width="56" height="56" viewBox="0 0 56 56" fill="none" xmlns="http://www.w3.org/2000/svg">
<path d="M7.40332 14.2499H11.9867M11.9867 14.2499H48.6533M11.9867 14.2499V46.3333C11.9867 47.5488 12.4695 48.7146 13.3291 49.5742C14.1886 50.4337 15.3544 50.9166 16.57 50.9166H39.4867C40.7022 50.9166 41.868 50.4337 42.7276 49.5742C43.5871 48.7146 44.07 47.5488 44.07 46.3333V14.2499M18.8617 14.2499V9.66659C18.8617 8.45101 19.3445 7.28522 20.2041 6.42568C21.0636 5.56614 22.2294 5.08325 23.445 5.08325H32.6117C33.8272 5.08325 34.993 5.56614 35.8526 6.42568C36.7121 7.28522 37.195 8.45101 37.195 9.66659V14.2499" stroke="#B3B3B3" stroke-width="4.58333" stroke-linecap="round" stroke-linejoin="round"/>
</svg>
