<svg width="56" height="56" viewBox="0 0 56 56" fill="none" xmlns="http://www.w3.org/2000/svg">
<path d="M7.16992 14.2497H11.7533M11.7533 14.2497H48.4199M11.7533 14.2497V46.333C11.7533 47.5486 12.2361 48.7144 13.0957 49.5739C13.9552 50.4335 15.121 50.9163 16.3366 50.9163H39.2533C40.4688 50.9163 41.6346 50.4335 42.4942 49.5739C43.3537 48.7144 43.8366 47.5486 43.8366 46.333V14.2497M18.6283 14.2497V9.66634C18.6283 8.45077 19.1111 7.28498 19.9707 6.42543C20.8302 5.56589 21.996 5.08301 23.2116 5.08301H32.3783C33.5938 5.08301 34.7596 5.56589 35.6192 6.42543C36.4787 7.28498 36.9616 8.45077 36.9616 9.66634V14.2497" stroke="white" stroke-width="4.58333" stroke-linecap="round" stroke-linejoin="round"/>
</svg>
