<svg width="28" height="28" viewBox="0 0 28 28" fill="none" xmlns="http://www.w3.org/2000/svg">
<path d="M3.6875 6.87533H5.97917M5.97917 6.87533H24.3125M5.97917 6.87533V22.917C5.97917 23.5248 6.22061 24.1077 6.65038 24.5374C7.08015 24.9672 7.66305 25.2087 8.27083 25.2087H19.7292C20.337 25.2087 20.9198 24.9672 21.3496 24.5374C21.7794 24.1077 22.0208 23.5248 22.0208 22.917V6.87533M9.41667 6.87533V4.58366C9.41667 3.97587 9.65811 3.39298 10.0879 2.96321C10.5177 2.53343 11.1005 2.29199 11.7083 2.29199H16.2917C16.8995 2.29199 17.4823 2.53343 17.9121 2.96321C18.3419 3.39298 18.5833 3.97587 18.5833 4.58366V6.87533" stroke="#A61930" stroke-width="2.86458" stroke-linecap="round" stroke-linejoin="round"/>
</svg>
