<svg width="27" height="26" viewBox="0 0 27 26" fill="none" xmlns="http://www.w3.org/2000/svg">
<path d="M24.2727 26L15.1727 16.9C14.4505 17.4778 13.6199 17.9352 12.681 18.2722C11.7421 18.6093 10.7431 18.7778 9.68381 18.7778C7.05974 18.7778 4.8389 17.869 3.02131 16.0514C1.20372 14.2338 0.294922 12.013 0.294922 9.38889C0.294922 6.76481 1.20372 4.54398 3.02131 2.72639C4.8389 0.908796 7.05974 0 9.68381 0C12.3079 0 14.5287 0.908796 16.3463 2.72639C18.1639 4.54398 19.0727 6.76481 19.0727 9.38889C19.0727 10.4481 18.9042 11.4472 18.5671 12.3861C18.2301 13.325 17.7727 14.1556 17.1949 14.8778L26.2949 23.9778L24.2727 26ZM9.68381 15.8889C11.4894 15.8889 13.0241 15.2569 14.288 13.9931C15.5519 12.7292 16.1838 11.1944 16.1838 9.38889C16.1838 7.58333 15.5519 6.04861 14.288 4.78472C13.0241 3.52083 11.4894 2.88889 9.68381 2.88889C7.87825 2.88889 6.34353 3.52083 5.07964 4.78472C3.81576 6.04861 3.18381 7.58333 3.18381 9.38889C3.18381 11.1944 3.81576 12.7292 5.07964 13.9931C6.34353 15.2569 7.87825 15.8889 9.68381 15.8889Z" fill="#CAC4D0"/>
</svg>
