<svg width="56" height="56" viewBox="0 0 56 56" fill="none" xmlns="http://www.w3.org/2000/svg">
<path d="M11.7086 48.625C10.4482 48.625 9.36917 48.1762 8.4716 47.2786C7.57403 46.3811 7.12524 45.3021 7.12524 44.0417V11.9583C7.12524 10.6979 7.57403 9.61892 8.4716 8.72135C9.36917 7.82378 10.4482 7.375 11.7086 7.375H43.7919C45.0523 7.375 46.1313 7.82378 47.0289 8.72135C47.9265 9.61892 48.3752 10.6979 48.3752 11.9583V44.0417C48.3752 45.3021 47.9265 46.3811 47.0289 47.2786C46.1313 48.1762 45.0523 48.625 43.7919 48.625H11.7086ZM11.7086 44.0417H43.7919V11.9583H11.7086V44.0417Z" fill="#1D1B20"/>
</svg>
