<svg width="49" height="48" viewBox="0 0 49 48" fill="none" xmlns="http://www.w3.org/2000/svg">
<path d="M6.20631 2.43396L10.3384 6.56604H8.07424V31.4717H28.9044L0.602539 3.16981L3.77235 0L48.6025 44.8302L45.4327 48L33.4327 36H30.7157V40.5283H35.2441V45.0566H17.1308V40.5283H21.6591V36H8.07424C6.82895 36 5.76292 35.5566 4.87612 34.6698C3.98933 33.783 3.54594 32.717 3.54594 31.4717V6.56604C3.54594 5.16981 3.98933 4.13208 4.87612 3.45283L6.20631 2.43396ZM45.8856 35.6604L41.6969 31.4717H44.3007V6.56604H16.7912L12.2629 2.03774H44.3007C45.5459 2.03774 46.612 2.48113 47.4988 3.36792C48.3856 4.25472 48.829 5.32075 48.829 6.56604V31.4717C48.829 32.4528 48.5554 33.3208 48.0082 34.0755C47.461 34.8302 46.7535 35.3585 45.8856 35.6604Z" fill="white"/>
</svg>
