<svg width="49" height="48" viewBox="0 0 49 48" fill="none" xmlns="http://www.w3.org/2000/svg">
<path d="M34.9165 6.00012C35.4418 5.47483 36.0654 5.05815 36.7517 4.77386C37.438 4.48958 38.1736 4.34326 38.9165 4.34326C39.6594 4.34326 40.395 4.48958 41.0813 4.77386C41.7676 5.05815 42.3912 5.47483 42.9165 6.00012C43.4418 6.5254 43.8585 7.14901 44.1428 7.83533C44.427 8.52165 44.5734 9.25725 44.5734 10.0001C44.5734 10.743 44.427 11.4786 44.1428 12.1649C43.8585 12.8512 43.4418 13.4748 42.9165 14.0001L15.9165 41.0001L4.9165 44.0001L7.9165 33.0001L34.9165 6.00012Z" stroke="#1E1E1E" stroke-width="4" stroke-linecap="round" stroke-linejoin="round"/>
</svg>
