<svg width="54" height="56" viewBox="0 0 54 56" fill="none" xmlns="http://www.w3.org/2000/svg">
<path d="M24.6045 9.66653H9.23123C8.0663 9.66653 6.94909 10.1494 6.12536 11.009C5.30163 11.8685 4.83887 13.0343 4.83887 14.2499V46.3332C4.83887 47.5488 5.30163 48.7146 6.12536 49.5741C6.94909 50.4336 8.0663 50.9165 9.23123 50.9165H39.9778C41.1427 50.9165 42.2599 50.4336 43.0836 49.5741C43.9073 48.7146 44.3701 47.5488 44.3701 46.3332V30.2915M41.0758 6.22903C41.9495 5.31735 43.1345 4.80518 44.3701 4.80518C45.6057 4.80518 46.7907 5.31735 47.6644 6.22903C48.5381 7.14072 49.0289 8.37722 49.0289 9.66653C49.0289 10.9558 48.5381 12.1924 47.6644 13.104L26.8007 34.8749L18.0159 37.1665L20.2121 27.9999L41.0758 6.22903Z" stroke="black" stroke-width="4.46875" stroke-linecap="round" stroke-linejoin="round"/>
</svg>
