<svg width="125" height="126" viewBox="0 0 125 126" fill="none" xmlns="http://www.w3.org/2000/svg">
<path d="M62.4998 57.4584V88.7084M46.8748 73.0834H78.1248M114.583 99.1251C114.583 101.888 113.486 104.537 111.532 106.491C109.579 108.444 106.929 109.542 104.167 109.542H20.8332C18.0705 109.542 15.421 108.444 13.4675 106.491C11.514 104.537 10.4165 101.888 10.4165 99.1251V26.2084C10.4165 23.4457 11.514 20.7962 13.4675 18.8427C15.421 16.8892 18.0705 15.7917 20.8332 15.7917H46.8748L57.2915 31.4167H104.167C106.929 31.4167 109.579 32.5142 111.532 34.4677C113.486 36.4212 114.583 39.0707 114.583 41.8334V99.1251Z" stroke="#A61930" stroke-width="10.4167" stroke-linecap="round" stroke-linejoin="round"/>
</svg>
