<svg width="56" height="56" viewBox="0 0 56 56" fill="none" xmlns="http://www.w3.org/2000/svg">
<path d="M18.0452 23.0417H11.889V19.2083H18.9046H19.2169L19.2734 18.9013L20.4765 12.37C20.7273 11.0088 21.3945 9.90523 22.4881 9.0447C23.5813 8.18444 24.8824 7.75 26.4098 7.75C28.0111 7.75 29.2901 8.22048 30.2797 9.13938C31.2709 10.0598 31.764 11.2008 31.764 12.5885C31.764 13.6591 31.4628 14.5123 30.8824 15.1781C30.3047 15.8407 29.5868 16.1667 28.7015 16.1667C27.8415 16.1667 27.1244 15.8782 26.5279 15.2987C25.9342 14.722 25.639 14.0178 25.639 13.1615C25.639 12.9825 25.648 12.8266 25.6647 12.6923C25.6825 12.5506 25.7095 12.388 25.7463 12.2038L25.873 11.5701L25.26 11.7745C24.9777 11.8686 24.7341 12.0208 24.563 12.249C24.4051 12.4594 24.2943 12.7439 24.2127 13.0705L24.2093 13.0841L24.2069 13.098L23.2329 18.7699L23.1577 19.2083H23.6025H34.0557V23.0417H32.5973H31.767L32.316 23.6646L35.2952 27.0448L35.5765 27.364L35.8578 27.0448L38.837 23.6646L39.386 23.0417H38.5557H37.0973V19.2083H47.8057V23.0417H44.6286H44.4584L44.3464 23.1697L38.3307 30.0447L38.1147 30.2917L38.3307 30.5386L44.3464 37.4136L44.4584 37.5417H44.6286H47.8057V41.375H37.0973V37.5417H38.5557H39.3769L38.839 36.9211L35.8599 33.4836L35.5765 33.1566L35.2931 33.4836L32.3139 36.9211L31.7761 37.5417H32.5973H34.0557V41.375H23.3473V37.5417H26.5244H26.6946L26.8066 37.4136L32.8223 30.5386L33.0383 30.2917L32.8223 30.0447L26.8066 23.1697L26.6946 23.0417H26.5244H22.7432H22.4315L22.3745 23.3481L18.7078 43.0564L18.7073 43.0594C18.4138 44.7104 17.7417 45.9745 16.7091 46.8825C15.681 47.7865 14.3607 48.25 12.7171 48.25C11.0674 48.25 9.76625 47.8116 8.77888 46.9653C7.80019 46.1264 7.30566 45.0121 7.30566 43.5833C7.30566 42.4294 7.6107 41.5406 8.18729 40.8792C8.76496 40.2166 9.48285 39.8906 10.3682 39.8906C11.2281 39.8906 11.9453 40.1791 12.5418 40.7586C13.1388 41.3386 13.4307 42.0251 13.4307 42.8385C13.4307 43.0175 13.4217 43.1734 13.4049 43.3077C13.3872 43.4494 13.3602 43.612 13.3234 43.7962L13.213 44.3478L13.7646 44.2375C14.0544 44.1796 14.2921 44.0189 14.4741 43.7849C14.6508 43.5577 14.7731 43.2649 14.857 42.9295L14.8599 42.9178L14.862 42.906L18.4141 23.4841L18.4951 23.0417H18.0452Z" fill="black" stroke="white" stroke-width="0.75"/>
</svg>
