<svg width="253" height="258" viewBox="0 0 253 258" fill="none" xmlns="http://www.w3.org/2000/svg">
<circle cx="125.772" cy="125.857" r="115.199" stroke="black" stroke-width="19.6029"/>
<path d="M188.392 200.791V185.727C188.392 177.736 184.973 170.072 178.888 164.422C172.803 158.771 164.55 155.597 155.944 155.597H91.0498C82.4443 155.597 74.1912 158.771 68.1061 164.422C62.0211 170.072 58.6025 177.736 58.6025 185.727V200.791M155.944 95.3376C155.944 111.978 141.417 125.467 123.497 125.467C105.577 125.467 91.0498 111.978 91.0498 95.3376C91.0498 78.6975 105.577 65.208 123.497 65.208C141.417 65.208 155.944 78.6975 155.944 95.3376Z" stroke="black" stroke-width="19.6029" stroke-linecap="round" stroke-linejoin="round"/>
</svg>
