<svg width="56" height="56" viewBox="0 0 56 56" fill="none" xmlns="http://www.w3.org/2000/svg">
<path d="M36.7778 9.66659H41.3612C42.5767 9.66659 43.7425 10.1495 44.6021 11.009C45.4616 11.8686 45.9445 13.0343 45.9445 14.2499V46.3333C45.9445 47.5488 45.4616 48.7146 44.6021 49.5742C43.7425 50.4337 42.5767 50.9166 41.3612 50.9166H13.8612C12.6456 50.9166 11.4798 50.4337 10.6203 49.5742C9.76072 48.7146 9.27783 47.5488 9.27783 46.3333V14.2499C9.27783 13.0343 9.76072 11.8686 10.6203 11.009C11.4798 10.1495 12.6456 9.66659 13.8612 9.66659H18.4445M20.7362 5.08325H34.4862C35.7518 5.08325 36.7778 6.10927 36.7778 7.37492V11.9583C36.7778 13.2239 35.7518 14.2499 34.4862 14.2499H20.7362C19.4705 14.2499 18.4445 13.2239 18.4445 11.9583V7.37492C18.4445 6.10927 19.4705 5.08325 20.7362 5.08325Z" stroke="#1E1E1E" stroke-width="4.58333" stroke-linecap="round" stroke-linejoin="round"/>
</svg>
