<svg width="62" height="56" viewBox="0 0 62 56" fill="none" xmlns="http://www.w3.org/2000/svg">
<path d="M59.3465 28C59.3465 41.8037 46.9399 53.3437 31.1823 53.3437C15.4247 53.3437 3.01814 41.8037 3.01814 28C3.01814 14.1963 15.4247 2.65632 31.1823 2.65632C46.9399 2.65632 59.3465 14.1963 59.3465 28Z" stroke="black" stroke-width="4.31264"/>
<path d="M46.8692 29.249C46.595 31.9401 45.4815 34.5047 43.6589 36.6427C41.8363 38.7808 39.38 40.4038 36.5775 41.3219C33.7749 42.2401 30.7421 42.4153 27.8337 41.8271C24.9254 41.239 22.2619 39.9117 20.1549 38.0007C18.0479 36.0897 16.5846 33.674 15.9361 31.0362C15.2876 28.3984 15.4808 25.6477 16.4931 23.1059C17.5054 20.564 19.2949 18.3363 21.6522 16.6832C24.0096 15.0301 26.8372 14.0202 29.8043 13.7715C28.0672 15.903 27.2312 18.5293 27.4486 21.1726C27.6659 23.8158 28.9221 26.3006 30.9886 28.1749C33.0551 30.0491 35.7947 31.1884 38.7091 31.3856C41.6235 31.5827 44.5191 30.8245 46.8692 29.249Z" stroke="black" stroke-width="4.30723" stroke-linecap="round" stroke-linejoin="round"/>
</svg>
