<svg width="56" height="58" viewBox="0 0 56 58" fill="none" xmlns="http://www.w3.org/2000/svg">
<circle cx="27.9956" cy="28.4285" r="25.3437" stroke="black" stroke-width="4.31264"/>
<path d="M41.7719 44.9143V41.6C41.7719 39.842 41.0198 38.156 39.6811 36.9129C38.3424 35.6699 36.5267 34.9715 34.6335 34.9715H20.3567C18.4634 34.9715 16.6478 35.6699 15.3091 36.9129C13.9703 38.156 13.2183 39.842 13.2183 41.6V44.9143M34.6335 21.7145C34.6335 25.3753 31.4375 28.343 27.4951 28.343C23.5526 28.343 20.3567 25.3753 20.3567 21.7145C20.3567 18.0536 23.5526 15.0859 27.4951 15.0859C31.4375 15.0859 34.6335 18.0536 34.6335 21.7145Z" stroke="black" stroke-width="4.31264" stroke-linecap="round" stroke-linejoin="round"/>
</svg>
