<svg width="55" height="56" viewBox="0 0 55 56" fill="none" xmlns="http://www.w3.org/2000/svg">
<path d="M6.875 14.2499H11.4583M11.4583 14.2499H48.125M11.4583 14.2499V46.3333C11.4583 47.5488 11.9412 48.7146 12.8008 49.5742C13.6603 50.4337 14.8261 50.9166 16.0417 50.9166H38.9583C40.1739 50.9166 41.3397 50.4337 42.1992 49.5742C43.0588 48.7146 43.5417 47.5488 43.5417 46.3333V14.2499M18.3333 14.2499V9.66659C18.3333 8.45101 18.8162 7.28522 19.6758 6.42568C20.5353 5.56614 21.7011 5.08325 22.9167 5.08325H32.0833C33.2989 5.08325 34.4647 5.56614 35.3242 6.42568C36.1838 7.28522 36.6667 8.45101 36.6667 9.66659V14.2499" stroke="#1E1E1E" stroke-width="4.58333" stroke-linecap="round" stroke-linejoin="round"/>
</svg>
