<svg width="56" height="56" viewBox="0 0 56 56" fill="none" xmlns="http://www.w3.org/2000/svg">
<path d="M24.5697 37.625L40.726 21.4688L37.5177 18.2604L24.5697 31.2083L18.0385 24.6771L14.8302 27.8854L24.5697 37.625ZM11.7364 48.625C10.476 48.625 9.397 48.1762 8.49943 47.2786C7.60186 46.3811 7.15308 45.3021 7.15308 44.0417V11.9583C7.15308 10.6979 7.60186 9.61892 8.49943 8.72135C9.397 7.82378 10.476 7.375 11.7364 7.375H43.8197C45.0802 7.375 46.1592 7.82378 47.0567 8.72135C47.9543 9.61892 48.4031 10.6979 48.4031 11.9583V44.0417C48.4031 45.3021 47.9543 46.3811 47.0567 47.2786C46.1592 48.1762 45.0802 48.625 43.8197 48.625H11.7364ZM11.7364 44.0417H43.8197V11.9583H11.7364V44.0417Z" fill="#1D1B20"/>
</svg>
