<svg width="56" height="44" viewBox="0 0 56 44" fill="none" xmlns="http://www.w3.org/2000/svg">
<path d="M5.52783 44C4.01533 44 2.72054 43.4615 1.64346 42.3844C0.566374 41.3073 0.027832 40.0125 0.027832 38.5V5.5C0.027832 3.9875 0.566374 2.69271 1.64346 1.61563C2.72054 0.538542 4.01533 0 5.52783 0H49.5278C51.0403 0 52.3351 0.538542 53.4122 1.61563C54.4893 2.69271 55.0278 3.9875 55.0278 5.5V38.5C55.0278 40.0125 54.4893 41.3073 53.4122 42.3844C52.3351 43.4615 51.0403 44 49.5278 44H5.52783ZM27.5278 24.75L5.52783 11V38.5H49.5278V11L27.5278 24.75ZM27.5278 19.25L49.5278 5.5H5.52783L27.5278 19.25ZM5.52783 11V5.5V38.5V11Z" fill="black"/>
</svg>
