<svg width="56" height="56" viewBox="0 0 56 56" fill="none" xmlns="http://www.w3.org/2000/svg">
<path d="M27.7223 25.7083V39.4583M20.8473 32.5833H34.5973M50.639 44.0417C50.639 45.2572 50.1561 46.423 49.2966 47.2826C48.437 48.1421 47.2712 48.625 46.0557 48.625H9.389C8.17342 48.625 7.00763 48.1421 6.14809 47.2826C5.28855 46.423 4.80566 45.2572 4.80566 44.0417V11.9583C4.80566 10.7428 5.28855 9.57697 6.14809 8.71743C7.00763 7.85789 8.17342 7.375 9.389 7.375H20.8473L25.4307 14.25H46.0557C47.2712 14.25 48.437 14.7329 49.2966 15.5924C50.1561 16.452 50.639 17.6178 50.639 18.8333V44.0417Z" stroke="black" stroke-width="4.58333" stroke-linecap="round" stroke-linejoin="round"/>
</svg>
