<svg width="49" height="48" viewBox="0 0 49 48" fill="none" xmlns="http://www.w3.org/2000/svg">
<path d="M24.0833 26C25.1878 26 26.0833 25.1046 26.0833 24C26.0833 22.8954 25.1878 22 24.0833 22C22.9787 22 22.0833 22.8954 22.0833 24C22.0833 25.1046 22.9787 26 24.0833 26Z" stroke="#1E1E1E" stroke-width="4.58" stroke-linecap="round" stroke-linejoin="round"/>
<path d="M38.0833 26C39.1878 26 40.0833 25.1046 40.0833 24C40.0833 22.8954 39.1878 22 38.0833 22C36.9787 22 36.0833 22.8954 36.0833 24C36.0833 25.1046 36.9787 26 38.0833 26Z" stroke="#1E1E1E" stroke-width="4.58" stroke-linecap="round" stroke-linejoin="round"/>
<path d="M10.0833 26C11.1878 26 12.0833 25.1046 12.0833 24C12.0833 22.8954 11.1878 22 10.0833 22C8.97868 22 8.08325 22.8954 8.08325 24C8.08325 25.1046 8.97868 26 10.0833 26Z" stroke="#1E1E1E" stroke-width="4.58" stroke-linecap="round" stroke-linejoin="round"/>
</svg>
